<?xml version="1.0" standalone="no"?>
 <!DOCTYPE svg PUBLIC "-//W3C//DTD SVG 1.1//EN" 
 "http://www.w3.org/Graphics/SVG/1.1/DTD/svg11.dtd"> 
<svg
  xmlns:svg="http://www.w3.org/2000/svg"
  xmlns="http://www.w3.org/2000/svg"
  xmlns:xlink="http://www.w3.org/1999/xlink"
  version="1.1"
  width="29.700220cm" height="21.000720cm" viewBox="0 0 116930 82680">
<title>SVG Picture created as Georesistance PCB.svg date 2021/12/27 05:49:54 </title>
  <desc>Picture generated by Eeschema-SVG </desc>
<g style="fill:#000000; fill-opacity:1;stroke:#000000; stroke-opacity:1;
stroke-linecap:round; stroke-linejoin:round;"
 transform="translate(0 0) scale(1 1)">
</g>
<g style="fill:#000000; fill-opacity:0.0; 
stroke:#000000; stroke-width:60; stroke-opacity:1; 
stroke-linecap:round; stroke-linejoin:round;">
</g>
<g style="fill:#840084; fill-opacity:0.0; 
stroke:#840084; stroke-width:60; stroke-opacity:1; 
stroke-linecap:round; stroke-linejoin:round;">
<path d="M130000 40000
L139500 40000
L139500 43000
L130000 43000
L130000 40000
" />
</g>
<g style="fill:#008484; fill-opacity:0.0; 
stroke:#008484; stroke-width:60; stroke-opacity:1; 
stroke-linecap:round; stroke-linejoin:round;">
</g>
<g style="fill:#000000; fill-opacity:0.0; 
stroke:#000000; stroke-width:60; stroke-opacity:1; 
stroke-linecap:round; stroke-linejoin:round;">
<text x="130000" y="39960"
textLength="8080" font-size="660" lengthAdjust="spacingAndGlyphs"
text-anchor="start" opacity="0">Sheet: Voltage_Sense</text>
<path d="M130120 39910
L130190 39930
L130310 39930
L130360 39910
L130380 39880
L130410 39840
L130410 39790
L130380 39740
L130360 39720
L130310 39690
L130220 39670
L130170 39650
L130140 39620
L130120 39570
L130120 39530
L130140 39480
L130170 39460
L130220 39430
L130330 39430
L130410 39460
" />
<path d="M130620 39930
L130620 39430
" />
<path d="M130830 39930
L130830 39670
L130810 39620
L130760 39600
L130690 39600
L130640 39620
L130620 39650
" />
<path d="M131260 39910
L131220 39930
L131120 39930
L131070 39910
L131050 39860
L131050 39670
L131070 39620
L131120 39600
L131220 39600
L131260 39620
L131290 39670
L131290 39720
L131050 39760
" />
<path d="M131690 39910
L131640 39930
L131550 39930
L131500 39910
L131480 39860
L131480 39670
L131500 39620
L131550 39600
L131640 39600
L131690 39620
L131720 39670
L131720 39720
L131480 39760
" />
<path d="M131860 39600
L132050 39600
" />
<path d="M131930 39430
L131930 39860
L131950 39910
L132000 39930
L132050 39930
" />
<path d="M132220 39880
L132240 39910
L132220 39930
L132190 39910
L132220 39880
L132220 39930
" />
<path d="M132220 39620
L132240 39650
L132220 39670
L132190 39650
L132220 39620
L132220 39670
" />
<path d="M132760 39430
L132930 39930
L133100 39430
" />
<path d="M133330 39930
L133290 39910
L133260 39880
L133240 39840
L133240 39690
L133260 39650
L133290 39620
L133330 39600
L133410 39600
L133450 39620
L133480 39650
L133500 39690
L133500 39840
L133480 39880
L133450 39910
L133410 39930
L133330 39930
" />
<path d="M133790 39930
L133740 39910
L133720 39860
L133720 39430
" />
<path d="M133910 39600
L134100 39600
" />
<path d="M133980 39430
L133980 39860
L134000 39910
L134050 39930
L134100 39930
" />
<path d="M134480 39930
L134480 39670
L134450 39620
L134410 39600
L134310 39600
L134260 39620
" />
<path d="M134480 39910
L134430 39930
L134310 39930
L134260 39910
L134240 39860
L134240 39810
L134260 39760
L134310 39740
L134430 39740
L134480 39720
" />
<path d="M134930 39600
L134930 40000
L134910 40050
L134880 40070
L134830 40100
L134760 40100
L134720 40070
" />
<path d="M134930 39910
L134880 39930
L134790 39930
L134740 39910
L134720 39880
L134690 39840
L134690 39690
L134720 39650
L134740 39620
L134790 39600
L134880 39600
L134930 39620
" />
<path d="M135360 39910
L135310 39930
L135220 39930
L135170 39910
L135140 39860
L135140 39670
L135170 39620
L135220 39600
L135310 39600
L135360 39620
L135380 39670
L135380 39720
L135140 39760
" />
<path d="M135480 39980
L135860 39980
" />
<path d="M135950 39910
L136030 39930
L136140 39930
L136190 39910
L136220 39880
L136240 39840
L136240 39790
L136220 39740
L136190 39720
L136140 39690
L136050 39670
L136000 39650
L135980 39620
L135950 39570
L135950 39530
L135980 39480
L136000 39460
L136050 39430
L136170 39430
L136240 39460
" />
<path d="M136640 39910
L136600 39930
L136500 39930
L136450 39910
L136430 39860
L136430 39670
L136450 39620
L136500 39600
L136600 39600
L136640 39620
L136670 39670
L136670 39720
L136430 39760
" />
<path d="M136880 39600
L136880 39930
" />
<path d="M136880 39650
L136910 39620
L136950 39600
L137030 39600
L137070 39620
L137100 39670
L137100 39930
" />
<path d="M137310 39910
L137360 39930
L137450 39930
L137500 39910
L137530 39860
L137530 39840
L137500 39790
L137450 39760
L137380 39760
L137330 39740
L137310 39690
L137310 39670
L137330 39620
L137380 39600
L137450 39600
L137500 39620
" />
<path d="M137930 39910
L137880 39930
L137790 39930
L137740 39910
L137720 39860
L137720 39670
L137740 39620
L137790 39600
L137880 39600
L137930 39620
L137950 39670
L137950 39720
L137720 39760
" />
</g>
<g style="fill:#848400; fill-opacity:0.0; 
stroke:#848400; stroke-width:60; stroke-opacity:1; 
stroke-linecap:round; stroke-linejoin:round;">
</g>
<g style="fill:#000000; fill-opacity:0.0; 
stroke:#000000; stroke-width:60; stroke-opacity:1; 
stroke-linecap:round; stroke-linejoin:round;">
<text x="130000" y="43540"
textLength="8890" font-size="660" lengthAdjust="spacingAndGlyphs"
text-anchor="start" opacity="0">File: Voltage_Sense.sch</text>
<path d="M130310 43250
L130140 43250
" />
<path d="M130140 43510
L130140 43010
L130380 43010
" />
<path d="M130570 43510
L130570 43180
" />
<path d="M130570 43010
L130550 43040
L130570 43060
L130600 43040
L130570 43010
L130570 43060
" />
<path d="M130880 43510
L130830 43490
L130810 43440
L130810 43010
" />
<path d="M131260 43490
L131220 43510
L131120 43510
L131070 43490
L131050 43440
L131050 43250
L131070 43200
L131120 43180
L131220 43180
L131260 43200
L131290 43250
L131290 43300
L131050 43340
" />
<path d="M131500 43460
L131530 43490
L131500 43510
L131480 43490
L131500 43460
L131500 43510
" />
<path d="M131500 43200
L131530 43230
L131500 43250
L131480 43230
L131500 43200
L131500 43250
" />
<path d="M132050 43010
L132220 43510
L132380 43010
" />
<path d="M132620 43510
L132570 43490
L132550 43460
L132530 43420
L132530 43270
L132550 43230
L132570 43200
L132620 43180
L132690 43180
L132740 43200
L132760 43230
L132790 43270
L132790 43420
L132760 43460
L132740 43490
L132690 43510
L132620 43510
" />
<path d="M133070 43510
L133030 43490
L133000 43440
L133000 43010
" />
<path d="M133190 43180
L133380 43180
" />
<path d="M133260 43010
L133260 43440
L133290 43490
L133330 43510
L133380 43510
" />
<path d="M133760 43510
L133760 43250
L133740 43200
L133690 43180
L133600 43180
L133550 43200
" />
<path d="M133760 43490
L133720 43510
L133600 43510
L133550 43490
L133530 43440
L133530 43390
L133550 43340
L133600 43320
L133720 43320
L133760 43300
" />
<path d="M134220 43180
L134220 43580
L134190 43630
L134170 43650
L134120 43680
L134050 43680
L134000 43650
" />
<path d="M134220 43490
L134170 43510
L134070 43510
L134030 43490
L134000 43460
L133980 43420
L133980 43270
L134000 43230
L134030 43200
L134070 43180
L134170 43180
L134220 43200
" />
<path d="M134640 43490
L134600 43510
L134500 43510
L134450 43490
L134430 43440
L134430 43250
L134450 43200
L134500 43180
L134600 43180
L134640 43200
L134670 43250
L134670 43300
L134430 43340
" />
<path d="M134760 43560
L135140 43560
" />
<path d="M135240 43490
L135310 43510
L135430 43510
L135480 43490
L135500 43460
L135530 43420
L135530 43370
L135500 43320
L135480 43300
L135430 43270
L135330 43250
L135290 43230
L135260 43200
L135240 43150
L135240 43110
L135260 43060
L135290 43040
L135330 43010
L135450 43010
L135530 43040
" />
<path d="M135930 43490
L135880 43510
L135790 43510
L135740 43490
L135720 43440
L135720 43250
L135740 43200
L135790 43180
L135880 43180
L135930 43200
L135950 43250
L135950 43300
L135720 43340
" />
<path d="M136170 43180
L136170 43510
" />
<path d="M136170 43230
L136190 43200
L136240 43180
L136310 43180
L136360 43200
L136380 43250
L136380 43510
" />
<path d="M136600 43490
L136640 43510
L136740 43510
L136790 43490
L136810 43440
L136810 43420
L136790 43370
L136740 43340
L136670 43340
L136620 43320
L136600 43270
L136600 43250
L136620 43200
L136670 43180
L136740 43180
L136790 43200
" />
<path d="M137220 43490
L137170 43510
L137070 43510
L137030 43490
L137000 43440
L137000 43250
L137030 43200
L137070 43180
L137170 43180
L137220 43200
L137240 43250
L137240 43300
L137000 43340
" />
<path d="M137450 43460
L137480 43490
L137450 43510
L137430 43490
L137450 43460
L137450 43510
" />
<path d="M137670 43490
L137720 43510
L137810 43510
L137860 43490
L137880 43440
L137880 43420
L137860 43370
L137810 43340
L137740 43340
L137690 43320
L137670 43270
L137670 43250
L137690 43200
L137740 43180
L137810 43180
L137860 43200
" />
<path d="M138310 43490
L138260 43510
L138170 43510
L138120 43490
L138100 43460
L138070 43420
L138070 43270
L138100 43230
L138120 43200
L138170 43180
L138260 43180
L138310 43200
" />
<path d="M138530 43510
L138530 43010
" />
<path d="M138740 43510
L138740 43250
L138720 43200
L138670 43180
L138600 43180
L138550 43200
L138530 43230
" />
</g>
<g style="fill:#840084; fill-opacity:0.0; 
stroke:#840084; stroke-width:60; stroke-opacity:1; 
stroke-linecap:round; stroke-linejoin:round;">
<path d="M130500 24500
L139000 24500
L139000 27500
L130500 27500
L130500 24500
" />
</g>
<g style="fill:#008484; fill-opacity:0.0; 
stroke:#008484; stroke-width:60; stroke-opacity:1; 
stroke-linecap:round; stroke-linejoin:round;">
</g>
<g style="fill:#000000; fill-opacity:0.0; 
stroke:#000000; stroke-width:60; stroke-opacity:1; 
stroke-linecap:round; stroke-linejoin:round;">
<text x="130500" y="24460"
textLength="8060" font-size="660" lengthAdjust="spacingAndGlyphs"
text-anchor="start" opacity="0">Sheet: Current_Sense</text>
<path d="M130620 24410
L130690 24430
L130810 24430
L130860 24410
L130880 24380
L130910 24340
L130910 24290
L130880 24240
L130860 24220
L130810 24190
L130720 24170
L130670 24150
L130640 24120
L130620 24070
L130620 24030
L130640 23980
L130670 23960
L130720 23930
L130830 23930
L130910 23960
" />
<path d="M131120 24430
L131120 23930
" />
<path d="M131330 24430
L131330 24170
L131310 24120
L131260 24100
L131190 24100
L131140 24120
L131120 24150
" />
<path d="M131760 24410
L131720 24430
L131620 24430
L131570 24410
L131550 24360
L131550 24170
L131570 24120
L131620 24100
L131720 24100
L131760 24120
L131790 24170
L131790 24220
L131550 24260
" />
<path d="M132190 24410
L132140 24430
L132050 24430
L132000 24410
L131980 24360
L131980 24170
L132000 24120
L132050 24100
L132140 24100
L132190 24120
L132220 24170
L132220 24220
L131980 24260
" />
<path d="M132360 24100
L132550 24100
" />
<path d="M132430 23930
L132430 24360
L132450 24410
L132500 24430
L132550 24430
" />
<path d="M132720 24380
L132740 24410
L132720 24430
L132690 24410
L132720 24380
L132720 24430
" />
<path d="M132720 24120
L132740 24150
L132720 24170
L132690 24150
L132720 24120
L132720 24170
" />
<path d="M133620 24380
L133600 24410
L133530 24430
L133480 24430
L133410 24410
L133360 24360
L133330 24310
L133310 24220
L133310 24150
L133330 24050
L133360 24000
L133410 23960
L133480 23930
L133530 23930
L133600 23960
L133620 23980
" />
<path d="M134050 24100
L134050 24430
" />
<path d="M133830 24100
L133830 24360
L133860 24410
L133910 24430
L133980 24430
L134030 24410
L134050 24380
" />
<path d="M134290 24430
L134290 24100
" />
<path d="M134290 24190
L134310 24150
L134330 24120
L134380 24100
L134430 24100
" />
<path d="M134600 24430
L134600 24100
" />
<path d="M134600 24190
L134620 24150
L134640 24120
L134690 24100
L134740 24100
" />
<path d="M135100 24410
L135050 24430
L134950 24430
L134910 24410
L134880 24360
L134880 24170
L134910 24120
L134950 24100
L135050 24100
L135100 24120
L135120 24170
L135120 24220
L134880 24260
" />
<path d="M135330 24100
L135330 24430
" />
<path d="M135330 24150
L135360 24120
L135410 24100
L135480 24100
L135530 24120
L135550 24170
L135550 24430
" />
<path d="M135720 24100
L135910 24100
" />
<path d="M135790 23930
L135790 24360
L135810 24410
L135860 24430
L135910 24430
" />
<path d="M135950 24480
L136330 24480
" />
<path d="M136430 24410
L136500 24430
L136620 24430
L136670 24410
L136690 24380
L136720 24340
L136720 24290
L136690 24240
L136670 24220
L136620 24190
L136530 24170
L136480 24150
L136450 24120
L136430 24070
L136430 24030
L136450 23980
L136480 23960
L136530 23930
L136640 23930
L136720 23960
" />
<path d="M137120 24410
L137070 24430
L136980 24430
L136930 24410
L136910 24360
L136910 24170
L136930 24120
L136980 24100
L137070 24100
L137120 24120
L137140 24170
L137140 24220
L136910 24260
" />
<path d="M137360 24100
L137360 24430
" />
<path d="M137360 24150
L137380 24120
L137430 24100
L137500 24100
L137550 24120
L137570 24170
L137570 24430
" />
<path d="M137790 24410
L137830 24430
L137930 24430
L137980 24410
L138000 24360
L138000 24340
L137980 24290
L137930 24260
L137860 24260
L137810 24240
L137790 24190
L137790 24170
L137810 24120
L137860 24100
L137930 24100
L137980 24120
" />
<path d="M138410 24410
L138360 24430
L138260 24430
L138220 24410
L138190 24360
L138190 24170
L138220 24120
L138260 24100
L138360 24100
L138410 24120
L138430 24170
L138430 24220
L138190 24260
" />
</g>
<g style="fill:#848400; fill-opacity:0.0; 
stroke:#848400; stroke-width:60; stroke-opacity:1; 
stroke-linecap:round; stroke-linejoin:round;">
</g>
<g style="fill:#000000; fill-opacity:0.0; 
stroke:#000000; stroke-width:60; stroke-opacity:1; 
stroke-linecap:round; stroke-linejoin:round;">
<text x="130500" y="28040"
textLength="8870" font-size="660" lengthAdjust="spacingAndGlyphs"
text-anchor="start" opacity="0">File: Current_Sense.sch</text>
<path d="M130810 27750
L130640 27750
" />
<path d="M130640 28010
L130640 27510
L130880 27510
" />
<path d="M131070 28010
L131070 27680
" />
<path d="M131070 27510
L131050 27540
L131070 27560
L131100 27540
L131070 27510
L131070 27560
" />
<path d="M131380 28010
L131330 27990
L131310 27940
L131310 27510
" />
<path d="M131760 27990
L131720 28010
L131620 28010
L131570 27990
L131550 27940
L131550 27750
L131570 27700
L131620 27680
L131720 27680
L131760 27700
L131790 27750
L131790 27800
L131550 27840
" />
<path d="M132000 27960
L132030 27990
L132000 28010
L131980 27990
L132000 27960
L132000 28010
" />
<path d="M132000 27700
L132030 27730
L132000 27750
L131980 27730
L132000 27700
L132000 27750
" />
<path d="M132910 27960
L132880 27990
L132810 28010
L132760 28010
L132690 27990
L132640 27940
L132620 27890
L132600 27800
L132600 27730
L132620 27630
L132640 27580
L132690 27540
L132760 27510
L132810 27510
L132880 27540
L132910 27560
" />
<path d="M133330 27680
L133330 28010
" />
<path d="M133120 27680
L133120 27940
L133140 27990
L133190 28010
L133260 28010
L133310 27990
L133330 27960
" />
<path d="M133570 28010
L133570 27680
" />
<path d="M133570 27770
L133600 27730
L133620 27700
L133670 27680
L133720 27680
" />
<path d="M133880 28010
L133880 27680
" />
<path d="M133880 27770
L133910 27730
L133930 27700
L133980 27680
L134030 27680
" />
<path d="M134380 27990
L134330 28010
L134240 28010
L134190 27990
L134170 27940
L134170 27750
L134190 27700
L134240 27680
L134330 27680
L134380 27700
L134410 27750
L134410 27800
L134170 27840
" />
<path d="M134620 27680
L134620 28010
" />
<path d="M134620 27730
L134640 27700
L134690 27680
L134760 27680
L134810 27700
L134830 27750
L134830 28010
" />
<path d="M135000 27680
L135190 27680
" />
<path d="M135070 27510
L135070 27940
L135100 27990
L135140 28010
L135190 28010
" />
<path d="M135240 28060
L135620 28060
" />
<path d="M135720 27990
L135790 28010
L135910 28010
L135950 27990
L135980 27960
L136000 27920
L136000 27870
L135980 27820
L135950 27800
L135910 27770
L135810 27750
L135760 27730
L135740 27700
L135720 27650
L135720 27610
L135740 27560
L135760 27540
L135810 27510
L135930 27510
L136000 27540
" />
<path d="M136410 27990
L136360 28010
L136260 28010
L136220 27990
L136190 27940
L136190 27750
L136220 27700
L136260 27680
L136360 27680
L136410 27700
L136430 27750
L136430 27800
L136190 27840
" />
<path d="M136640 27680
L136640 28010
" />
<path d="M136640 27730
L136670 27700
L136720 27680
L136790 27680
L136830 27700
L136860 27750
L136860 28010
" />
<path d="M137070 27990
L137120 28010
L137220 28010
L137260 27990
L137290 27940
L137290 27920
L137260 27870
L137220 27840
L137140 27840
L137100 27820
L137070 27770
L137070 27750
L137100 27700
L137140 27680
L137220 27680
L137260 27700
" />
<path d="M137690 27990
L137640 28010
L137550 28010
L137500 27990
L137480 27940
L137480 27750
L137500 27700
L137550 27680
L137640 27680
L137690 27700
L137720 27750
L137720 27800
L137480 27840
" />
<path d="M137930 27960
L137950 27990
L137930 28010
L137910 27990
L137930 27960
L137930 28010
" />
<path d="M138140 27990
L138190 28010
L138290 28010
L138330 27990
L138360 27940
L138360 27920
L138330 27870
L138290 27840
L138220 27840
L138170 27820
L138140 27770
L138140 27750
L138170 27700
L138220 27680
L138290 27680
L138330 27700
" />
<path d="M138790 27990
L138740 28010
L138640 28010
L138600 27990
L138570 27960
L138550 27920
L138550 27770
L138570 27730
L138600 27700
L138640 27680
L138740 27680
L138790 27700
" />
<path d="M139000 28010
L139000 27510
" />
<path d="M139220 28010
L139220 27750
L139190 27700
L139140 27680
L139070 27680
L139030 27700
L139000 27730
" />
</g>
<g style="fill:#840084; fill-opacity:0.0; 
stroke:#840084; stroke-width:60; stroke-opacity:1; 
stroke-linecap:round; stroke-linejoin:round;">
<path d="M130500 50000
L139500 50000
L139500 53500
L130500 53500
L130500 50000
" />
</g>
<g style="fill:#008484; fill-opacity:0.0; 
stroke:#008484; stroke-width:60; stroke-opacity:1; 
stroke-linecap:round; stroke-linejoin:round;">
</g>
<g style="fill:#000000; fill-opacity:0.0; 
stroke:#000000; stroke-width:60; stroke-opacity:1; 
stroke-linecap:round; stroke-linejoin:round;">
<text x="130500" y="49960"
textLength="4390" font-size="660" lengthAdjust="spacingAndGlyphs"
text-anchor="start" opacity="0">Sheet: Misc</text>
<path d="M130620 49910
L130690 49930
L130810 49930
L130860 49910
L130880 49880
L130910 49840
L130910 49790
L130880 49740
L130860 49720
L130810 49690
L130720 49670
L130670 49650
L130640 49620
L130620 49570
L130620 49530
L130640 49480
L130670 49460
L130720 49430
L130830 49430
L130910 49460
" />
<path d="M131120 49930
L131120 49430
" />
<path d="M131330 49930
L131330 49670
L131310 49620
L131260 49600
L131190 49600
L131140 49620
L131120 49650
" />
<path d="M131760 49910
L131720 49930
L131620 49930
L131570 49910
L131550 49860
L131550 49670
L131570 49620
L131620 49600
L131720 49600
L131760 49620
L131790 49670
L131790 49720
L131550 49760
" />
<path d="M132190 49910
L132140 49930
L132050 49930
L132000 49910
L131980 49860
L131980 49670
L132000 49620
L132050 49600
L132140 49600
L132190 49620
L132220 49670
L132220 49720
L131980 49760
" />
<path d="M132360 49600
L132550 49600
" />
<path d="M132430 49430
L132430 49860
L132450 49910
L132500 49930
L132550 49930
" />
<path d="M132720 49880
L132740 49910
L132720 49930
L132690 49910
L132720 49880
L132720 49930
" />
<path d="M132720 49620
L132740 49650
L132720 49670
L132690 49650
L132720 49620
L132720 49670
" />
<path d="M133330 49930
L133330 49430
L133500 49790
L133670 49430
L133670 49930
" />
<path d="M133910 49930
L133910 49600
" />
<path d="M133910 49430
L133880 49460
L133910 49480
L133930 49460
L133910 49430
L133910 49480
" />
<path d="M134120 49910
L134170 49930
L134260 49930
L134310 49910
L134330 49860
L134330 49840
L134310 49790
L134260 49760
L134190 49760
L134140 49740
L134120 49690
L134120 49670
L134140 49620
L134190 49600
L134260 49600
L134310 49620
" />
<path d="M134760 49910
L134720 49930
L134620 49930
L134570 49910
L134550 49880
L134530 49840
L134530 49690
L134550 49650
L134570 49620
L134620 49600
L134720 49600
L134760 49620
" />
</g>
<g style="fill:#848400; fill-opacity:0.0; 
stroke:#848400; stroke-width:60; stroke-opacity:1; 
stroke-linecap:round; stroke-linejoin:round;">
</g>
<g style="fill:#000000; fill-opacity:0.0; 
stroke:#000000; stroke-width:60; stroke-opacity:1; 
stroke-linecap:round; stroke-linejoin:round;">
<text x="130500" y="54040"
textLength="5200" font-size="660" lengthAdjust="spacingAndGlyphs"
text-anchor="start" opacity="0">File: Misc.sch</text>
<path d="M130810 53750
L130640 53750
" />
<path d="M130640 54010
L130640 53510
L130880 53510
" />
<path d="M131070 54010
L131070 53680
" />
<path d="M131070 53510
L131050 53540
L131070 53560
L131100 53540
L131070 53510
L131070 53560
" />
<path d="M131380 54010
L131330 53990
L131310 53940
L131310 53510
" />
<path d="M131760 53990
L131720 54010
L131620 54010
L131570 53990
L131550 53940
L131550 53750
L131570 53700
L131620 53680
L131720 53680
L131760 53700
L131790 53750
L131790 53800
L131550 53840
" />
<path d="M132000 53960
L132030 53990
L132000 54010
L131980 53990
L132000 53960
L132000 54010
" />
<path d="M132000 53700
L132030 53730
L132000 53750
L131980 53730
L132000 53700
L132000 53750
" />
<path d="M132620 54010
L132620 53510
L132790 53870
L132950 53510
L132950 54010
" />
<path d="M133190 54010
L133190 53680
" />
<path d="M133190 53510
L133170 53540
L133190 53560
L133220 53540
L133190 53510
L133190 53560
" />
<path d="M133410 53990
L133450 54010
L133550 54010
L133600 53990
L133620 53940
L133620 53920
L133600 53870
L133550 53840
L133480 53840
L133430 53820
L133410 53770
L133410 53750
L133430 53700
L133480 53680
L133550 53680
L133600 53700
" />
<path d="M134050 53990
L134000 54010
L133910 54010
L133860 53990
L133830 53960
L133810 53920
L133810 53770
L133830 53730
L133860 53700
L133910 53680
L134000 53680
L134050 53700
" />
<path d="M134260 53960
L134290 53990
L134260 54010
L134240 53990
L134260 53960
L134260 54010
" />
<path d="M134480 53990
L134530 54010
L134620 54010
L134670 53990
L134690 53940
L134690 53920
L134670 53870
L134620 53840
L134550 53840
L134500 53820
L134480 53770
L134480 53750
L134500 53700
L134550 53680
L134620 53680
L134670 53700
" />
<path d="M135120 53990
L135070 54010
L134980 54010
L134930 53990
L134910 53960
L134880 53920
L134880 53770
L134910 53730
L134930 53700
L134980 53680
L135070 53680
L135120 53700
" />
<path d="M135330 54010
L135330 53510
" />
<path d="M135550 54010
L135550 53750
L135530 53700
L135480 53680
L135410 53680
L135360 53700
L135330 53730
" />
</g>
<g style="fill:#840084; fill-opacity:0.0; 
stroke:#840084; stroke-width:60; stroke-opacity:1; 
stroke-linecap:round; stroke-linejoin:round;">
<path d="M139500 18000
L151000 18000
L151000 20000
L139500 20000
L139500 18000
" />
</g>
<g style="fill:#008484; fill-opacity:0.0; 
stroke:#008484; stroke-width:60; stroke-opacity:1; 
stroke-linecap:round; stroke-linejoin:round;">
</g>
<g style="fill:#000000; fill-opacity:0.0; 
stroke:#000000; stroke-width:60; stroke-opacity:1; 
stroke-linecap:round; stroke-linejoin:round;">
<text x="139500" y="17960"
textLength="4960" font-size="660" lengthAdjust="spacingAndGlyphs"
text-anchor="start" opacity="0">Sheet: Power</text>
<path d="M139620 17910
L139690 17930
L139810 17930
L139860 17910
L139880 17880
L139910 17840
L139910 17790
L139880 17740
L139860 17720
L139810 17690
L139720 17670
L139670 17650
L139640 17620
L139620 17570
L139620 17530
L139640 17480
L139670 17460
L139720 17430
L139830 17430
L139910 17460
" />
<path d="M140120 17930
L140120 17430
" />
<path d="M140330 17930
L140330 17670
L140310 17620
L140260 17600
L140190 17600
L140140 17620
L140120 17650
" />
<path d="M140760 17910
L140720 17930
L140620 17930
L140570 17910
L140550 17860
L140550 17670
L140570 17620
L140620 17600
L140720 17600
L140760 17620
L140790 17670
L140790 17720
L140550 17760
" />
<path d="M141190 17910
L141140 17930
L141050 17930
L141000 17910
L140980 17860
L140980 17670
L141000 17620
L141050 17600
L141140 17600
L141190 17620
L141220 17670
L141220 17720
L140980 17760
" />
<path d="M141360 17600
L141550 17600
" />
<path d="M141430 17430
L141430 17860
L141450 17910
L141500 17930
L141550 17930
" />
<path d="M141720 17880
L141740 17910
L141720 17930
L141690 17910
L141720 17880
L141720 17930
" />
<path d="M141720 17620
L141740 17650
L141720 17670
L141690 17650
L141720 17620
L141720 17670
" />
<path d="M142330 17930
L142330 17430
L142530 17430
L142570 17460
L142600 17480
L142620 17530
L142620 17600
L142600 17650
L142570 17670
L142530 17690
L142330 17690
" />
<path d="M142910 17930
L142860 17910
L142830 17880
L142810 17840
L142810 17690
L142830 17650
L142860 17620
L142910 17600
L142980 17600
L143030 17620
L143050 17650
L143070 17690
L143070 17840
L143050 17880
L143030 17910
L142980 17930
L142910 17930
" />
<path d="M143240 17600
L143330 17930
L143430 17690
L143530 17930
L143620 17600
" />
<path d="M144000 17910
L143950 17930
L143860 17930
L143810 17910
L143790 17860
L143790 17670
L143810 17620
L143860 17600
L143950 17600
L144000 17620
L144030 17670
L144030 17720
L143790 17760
" />
<path d="M144240 17930
L144240 17600
" />
<path d="M144240 17690
L144260 17650
L144290 17620
L144330 17600
L144380 17600
" />
</g>
<g style="fill:#848400; fill-opacity:0.0; 
stroke:#848400; stroke-width:60; stroke-opacity:1; 
stroke-linecap:round; stroke-linejoin:round;">
</g>
<g style="fill:#000000; fill-opacity:0.0; 
stroke:#000000; stroke-width:60; stroke-opacity:1; 
stroke-linecap:round; stroke-linejoin:round;">
<text x="139500" y="20540"
textLength="5770" font-size="660" lengthAdjust="spacingAndGlyphs"
text-anchor="start" opacity="0">File: Power.sch</text>
<path d="M139810 20250
L139640 20250
" />
<path d="M139640 20510
L139640 20010
L139880 20010
" />
<path d="M140070 20510
L140070 20180
" />
<path d="M140070 20010
L140050 20040
L140070 20060
L140100 20040
L140070 20010
L140070 20060
" />
<path d="M140380 20510
L140330 20490
L140310 20440
L140310 20010
" />
<path d="M140760 20490
L140720 20510
L140620 20510
L140570 20490
L140550 20440
L140550 20250
L140570 20200
L140620 20180
L140720 20180
L140760 20200
L140790 20250
L140790 20300
L140550 20340
" />
<path d="M141000 20460
L141030 20490
L141000 20510
L140980 20490
L141000 20460
L141000 20510
" />
<path d="M141000 20200
L141030 20230
L141000 20250
L140980 20230
L141000 20200
L141000 20250
" />
<path d="M141620 20510
L141620 20010
L141810 20010
L141860 20040
L141880 20060
L141910 20110
L141910 20180
L141880 20230
L141860 20250
L141810 20270
L141620 20270
" />
<path d="M142190 20510
L142140 20490
L142120 20460
L142100 20420
L142100 20270
L142120 20230
L142140 20200
L142190 20180
L142260 20180
L142310 20200
L142330 20230
L142360 20270
L142360 20420
L142330 20460
L142310 20490
L142260 20510
L142190 20510
" />
<path d="M142530 20180
L142620 20510
L142720 20270
L142810 20510
L142910 20180
" />
<path d="M143290 20490
L143240 20510
L143140 20510
L143100 20490
L143070 20440
L143070 20250
L143100 20200
L143140 20180
L143240 20180
L143290 20200
L143310 20250
L143310 20300
L143070 20340
" />
<path d="M143530 20510
L143530 20180
" />
<path d="M143530 20270
L143550 20230
L143570 20200
L143620 20180
L143670 20180
" />
<path d="M143830 20460
L143860 20490
L143830 20510
L143810 20490
L143830 20460
L143830 20510
" />
<path d="M144050 20490
L144100 20510
L144190 20510
L144240 20490
L144260 20440
L144260 20420
L144240 20370
L144190 20340
L144120 20340
L144070 20320
L144050 20270
L144050 20250
L144070 20200
L144120 20180
L144190 20180
L144240 20200
" />
<path d="M144690 20490
L144640 20510
L144550 20510
L144500 20490
L144480 20460
L144450 20420
L144450 20270
L144480 20230
L144500 20200
L144550 20180
L144640 20180
L144690 20200
" />
<path d="M144910 20510
L144910 20010
" />
<path d="M145120 20510
L145120 20250
L145100 20200
L145050 20180
L144980 20180
L144930 20200
L144910 20230
" />
</g>
<g style="fill:#840084; fill-opacity:0.0; 
stroke:#840084; stroke-width:60; stroke-opacity:1; 
stroke-linecap:round; stroke-linejoin:round;">
</g> 
</svg>
