G04 #@! TF.GenerationSoftware,KiCad,Pcbnew,(5.1.10)-1*
G04 #@! TF.CreationDate,2021-11-18T05:31:33+07:00*
G04 #@! TF.ProjectId,Georesistance PCB,47656f72-6573-4697-9374-616e63652050,1*
G04 #@! TF.SameCoordinates,Original*
G04 #@! TF.FileFunction,Copper,L4,Bot*
G04 #@! TF.FilePolarity,Positive*
%FSLAX46Y46*%
G04 Gerber Fmt 4.6, Leading zero omitted, Abs format (unit mm)*
G04 Created by KiCad (PCBNEW (5.1.10)-1) date 2021-11-18 05:31:33*
%MOMM*%
%LPD*%
G01*
G04 APERTURE LIST*
G04 #@! TA.AperFunction,ComponentPad*
%ADD10C,2.000000*%
G04 #@! TD*
G04 #@! TA.AperFunction,ComponentPad*
%ADD11R,2.000000X2.000000*%
G04 #@! TD*
G04 #@! TA.AperFunction,ComponentPad*
%ADD12C,1.600000*%
G04 #@! TD*
G04 #@! TA.AperFunction,ComponentPad*
%ADD13O,1.600000X1.600000*%
G04 #@! TD*
G04 #@! TA.AperFunction,ComponentPad*
%ADD14O,2.000000X1.905000*%
G04 #@! TD*
G04 #@! TA.AperFunction,ComponentPad*
%ADD15R,2.000000X1.905000*%
G04 #@! TD*
G04 #@! TA.AperFunction,ComponentPad*
%ADD16O,1.700000X1.700000*%
G04 #@! TD*
G04 #@! TA.AperFunction,ComponentPad*
%ADD17R,1.700000X1.700000*%
G04 #@! TD*
G04 #@! TA.AperFunction,ComponentPad*
%ADD18C,1.440000*%
G04 #@! TD*
G04 #@! TA.AperFunction,ComponentPad*
%ADD19C,2.500000*%
G04 #@! TD*
G04 #@! TA.AperFunction,ComponentPad*
%ADD20R,2.500000X2.500000*%
G04 #@! TD*
G04 #@! TA.AperFunction,ComponentPad*
%ADD21C,1.000000*%
G04 #@! TD*
G04 #@! TA.AperFunction,ComponentPad*
%ADD22O,2.400000X2.400000*%
G04 #@! TD*
G04 #@! TA.AperFunction,ComponentPad*
%ADD23C,2.400000*%
G04 #@! TD*
G04 #@! TA.AperFunction,ComponentPad*
%ADD24C,2.340000*%
G04 #@! TD*
G04 #@! TA.AperFunction,ComponentPad*
%ADD25R,1.050000X1.500000*%
G04 #@! TD*
G04 #@! TA.AperFunction,ComponentPad*
%ADD26O,1.050000X1.500000*%
G04 #@! TD*
G04 #@! TA.AperFunction,ComponentPad*
%ADD27R,1.905000X2.000000*%
G04 #@! TD*
G04 #@! TA.AperFunction,ComponentPad*
%ADD28O,1.905000X2.000000*%
G04 #@! TD*
G04 #@! TA.AperFunction,ViaPad*
%ADD29C,0.600000*%
G04 #@! TD*
G04 #@! TA.AperFunction,ViaPad*
%ADD30C,0.900000*%
G04 #@! TD*
G04 #@! TA.AperFunction,Conductor*
%ADD31C,0.400000*%
G04 #@! TD*
G04 #@! TA.AperFunction,Conductor*
%ADD32C,0.200000*%
G04 #@! TD*
G04 #@! TA.AperFunction,Conductor*
%ADD33C,2.000000*%
G04 #@! TD*
G04 #@! TA.AperFunction,Conductor*
%ADD34C,0.127000*%
G04 #@! TD*
G04 APERTURE END LIST*
D10*
X41529000Y-24591000D03*
D11*
X41529000Y-29591000D03*
D12*
X46228000Y-60071000D03*
D13*
X53848000Y-60071000D03*
X71501000Y-94869000D03*
D12*
X71501000Y-87249000D03*
D14*
X27368500Y-58356500D03*
X27368500Y-60896500D03*
D15*
X27368500Y-63436500D03*
D12*
X77851000Y-83439000D03*
D13*
X70231000Y-83439000D03*
X55372000Y-72390000D03*
D12*
X62992000Y-72390000D03*
D16*
X78740000Y-71247000D03*
X78740000Y-68707000D03*
D17*
X78740000Y-66167000D03*
D18*
X65786000Y-76454000D03*
X68326000Y-78994000D03*
X70866000Y-76454000D03*
D19*
X28067000Y-85739000D03*
X28067000Y-80739000D03*
X28067000Y-75739000D03*
D20*
X28067000Y-70739000D03*
D21*
X73533000Y-41656000D03*
X70485000Y-39878000D03*
X56007000Y-89027000D03*
X46101000Y-93091000D03*
D13*
X84074000Y-76708000D03*
D12*
X84074000Y-84328000D03*
X62992000Y-80264000D03*
D13*
X55372000Y-80264000D03*
X55372000Y-64262000D03*
D12*
X62992000Y-64262000D03*
D13*
X70993000Y-60071000D03*
D12*
X63373000Y-60071000D03*
D22*
X37084000Y-40386000D03*
D23*
X52324000Y-40386000D03*
D13*
X82169000Y-44831000D03*
D12*
X82169000Y-52451000D03*
D13*
X40767000Y-35306000D03*
D12*
X33147000Y-35306000D03*
X35941000Y-58547000D03*
D13*
X43561000Y-58547000D03*
D16*
X87503000Y-24257000D03*
X84963000Y-24257000D03*
X82423000Y-24257000D03*
X79883000Y-24257000D03*
X77343000Y-24257000D03*
X74803000Y-24257000D03*
X72263000Y-24257000D03*
X69723000Y-24257000D03*
X67183000Y-24257000D03*
X64643000Y-24257000D03*
D17*
X62103000Y-24257000D03*
D13*
X56515000Y-42291000D03*
D12*
X56515000Y-34671000D03*
D24*
X60532000Y-84963000D03*
X63032000Y-89963000D03*
X65532000Y-84963000D03*
D14*
X27051000Y-34798000D03*
X27051000Y-37338000D03*
D15*
X27051000Y-39878000D03*
D25*
X77724000Y-75692000D03*
D26*
X75184000Y-75692000D03*
X76454000Y-75692000D03*
D18*
X36703000Y-63563500D03*
X39243000Y-63563500D03*
X41783000Y-63563500D03*
D13*
X51435000Y-35306000D03*
D12*
X43815000Y-35306000D03*
D13*
X77851000Y-52451000D03*
D12*
X77851000Y-44831000D03*
D13*
X84759800Y-33947100D03*
D12*
X77139800Y-33947100D03*
D22*
X25527000Y-93599000D03*
D23*
X40767000Y-93599000D03*
D22*
X36195000Y-87249000D03*
D23*
X51435000Y-87249000D03*
D27*
X38100000Y-80772000D03*
D28*
X40640000Y-80772000D03*
X43180000Y-80772000D03*
D20*
X26670000Y-26924000D03*
D19*
X31670000Y-26924000D03*
D10*
X40513000Y-51545500D03*
D11*
X40513000Y-46545500D03*
D10*
X53213000Y-51545500D03*
D11*
X53213000Y-46545500D03*
D10*
X28956000Y-51545500D03*
D11*
X28956000Y-46545500D03*
X53594000Y-29972000D03*
D10*
X53594000Y-24972000D03*
D29*
X83566000Y-89916000D03*
X87249000Y-89916000D03*
X81546700Y-57073800D03*
X81546700Y-57797700D03*
X87249000Y-57035700D03*
X87249000Y-57962800D03*
X81661000Y-29311600D03*
X81711800Y-30149800D03*
X72047100Y-34099500D03*
X72567800Y-33578800D03*
X65062100Y-33832800D03*
X65062100Y-34658300D03*
X62890400Y-40652700D03*
X62890400Y-41516300D03*
X72186800Y-43776900D03*
X72390000Y-65786000D03*
D30*
X47242000Y-70106000D03*
X46120050Y-69742050D03*
X47942500Y-82867500D03*
X46736000Y-83566000D03*
X45339000Y-83566000D03*
X43815000Y-83566000D03*
X43815000Y-83566000D03*
X47641000Y-75295000D03*
X46498000Y-75295000D03*
X47879000Y-76835000D03*
X46482000Y-76835000D03*
D29*
X73329800Y-70612000D03*
X55245000Y-93980000D03*
X55229000Y-94853000D03*
X67564000Y-91567000D03*
X66230500Y-92011500D03*
X83693000Y-91186000D03*
X73406000Y-90805000D03*
X79502000Y-62103000D03*
X80645000Y-63119000D03*
X72326500Y-61912500D03*
X73306940Y-72298560D03*
X69998400Y-32571500D03*
X69803200Y-35310000D03*
X75361800Y-30022800D03*
X65633600Y-45923200D03*
X64414400Y-45986700D03*
X69634100Y-49466500D03*
X60147200Y-35864800D03*
X72402700Y-37426900D03*
X68757800Y-40513000D03*
X84831000Y-88003300D03*
X66611500Y-43624500D03*
X69850000Y-45847000D03*
X72898000Y-74779540D03*
X76187300Y-49174400D03*
X61087000Y-41656000D03*
X57594500Y-56908700D03*
X61849000Y-41656000D03*
X58432700Y-56972200D03*
X60325000Y-41656000D03*
X56591200Y-57023000D03*
X71374000Y-48895000D03*
X79641700Y-36474400D03*
D31*
X83566000Y-89916000D02*
X87249000Y-89916000D01*
X87249000Y-89916000D02*
X87249000Y-89916000D01*
X87210900Y-57073800D02*
X87249000Y-57035700D01*
X81546700Y-57073800D02*
X87210900Y-57073800D01*
X87083900Y-57797700D02*
X87249000Y-57962800D01*
X81546700Y-57797700D02*
X87083900Y-57797700D01*
X81661000Y-30099000D02*
X81711800Y-30149800D01*
X81661000Y-29311600D02*
X81661000Y-30099000D01*
X72047100Y-34099500D02*
X72047100Y-34099500D01*
X72567800Y-33578800D02*
X72047100Y-34099500D01*
X74471938Y-32423100D02*
X73723500Y-32423100D01*
X76745238Y-30149800D02*
X74471938Y-32423100D01*
X78638400Y-30149800D02*
X76745238Y-30149800D01*
X81711800Y-30149800D02*
X78638400Y-30149800D01*
X78638400Y-30149800D02*
X78434338Y-30149800D01*
D32*
X62890400Y-40652700D02*
X62890400Y-41516300D01*
X73463150Y-32683450D02*
X73463150Y-38550850D01*
D31*
X73723500Y-32423100D02*
X73463150Y-32683450D01*
X73463150Y-32683450D02*
X72567800Y-33578800D01*
D32*
X73463150Y-38550850D02*
X69799200Y-42214800D01*
X65201800Y-42214800D02*
X63639700Y-40652700D01*
X69799200Y-42214800D02*
X65201800Y-42214800D01*
X62890400Y-40652700D02*
X63639700Y-40652700D01*
X62890400Y-41516300D02*
X63741300Y-41516300D01*
X63741300Y-41516300D02*
X64985900Y-42760900D01*
X64985900Y-42760900D02*
X70281800Y-42760900D01*
X74471938Y-38570762D02*
X74471938Y-32423100D01*
X72186800Y-40855900D02*
X72256650Y-40786050D01*
X72186800Y-43776900D02*
X72186800Y-40855900D01*
X72256650Y-40786050D02*
X74471938Y-38570762D01*
X70281800Y-42760900D02*
X72256650Y-40786050D01*
D33*
X53213000Y-51545500D02*
X40513000Y-51545500D01*
X41910000Y-24972000D02*
X41529000Y-24591000D01*
X41529000Y-24591000D02*
X33876000Y-24591000D01*
D34*
X56515000Y-27893000D02*
X53594000Y-24972000D01*
X56515000Y-34671000D02*
X56515000Y-27893000D01*
D33*
X30226000Y-41148000D02*
X30226000Y-28241000D01*
X34083000Y-45005000D02*
X30226000Y-41148000D01*
X34083000Y-49069000D02*
X34083000Y-45005000D01*
X34306500Y-49292500D02*
X34083000Y-49069000D01*
X34306500Y-51545500D02*
X34306500Y-49292500D01*
X40513000Y-51545500D02*
X34306500Y-51545500D01*
X34306500Y-51545500D02*
X28956000Y-51545500D01*
X47244000Y-83566000D02*
X47942500Y-82867500D01*
X43815000Y-83566000D02*
X47244000Y-83566000D01*
X47942500Y-82867500D02*
X47942500Y-77660500D01*
X47879000Y-77597000D02*
X47879000Y-76835000D01*
X47942500Y-77660500D02*
X47879000Y-77597000D01*
X46482000Y-76835000D02*
X47879000Y-76835000D01*
X46482000Y-75311000D02*
X46498000Y-75295000D01*
X46482000Y-76835000D02*
X46482000Y-75311000D01*
X46498000Y-75295000D02*
X47641000Y-75295000D01*
X46498000Y-75295000D02*
X46498000Y-69961000D01*
X46643000Y-70106000D02*
X47242000Y-70106000D01*
X46498000Y-69961000D02*
X46643000Y-70106000D01*
X47242000Y-66288938D02*
X49403000Y-64127938D01*
X47242000Y-70106000D02*
X47242000Y-66288938D01*
X49403000Y-64127938D02*
X49403000Y-58166000D01*
X49403000Y-58166000D02*
X46228000Y-54991000D01*
X37752000Y-54991000D02*
X34306500Y-51545500D01*
X46228000Y-54991000D02*
X37752000Y-54991000D01*
D34*
X53848000Y-52180500D02*
X53213000Y-51545500D01*
D33*
X46120050Y-69742050D02*
X46120050Y-68599050D01*
X47242000Y-67477100D02*
X47242000Y-66288938D01*
X46120050Y-68599050D02*
X47242000Y-67477100D01*
D31*
X87503000Y-30988000D02*
X84709000Y-33782000D01*
X87503000Y-24257000D02*
X87503000Y-30988000D01*
X84709000Y-33782000D02*
X84709000Y-37973000D01*
X65786000Y-59309000D02*
X65786000Y-76454000D01*
X65786000Y-76454000D02*
X65786000Y-81026000D01*
X65786000Y-81026000D02*
X68326000Y-83566000D01*
X64850000Y-89963000D02*
X63032000Y-89963000D01*
X67564000Y-90297000D02*
X66040000Y-88773000D01*
X67564000Y-91567000D02*
X67564000Y-90297000D01*
X66040000Y-88773000D02*
X64850000Y-89963000D01*
X68326000Y-86487000D02*
X66040000Y-88773000D01*
X66230500Y-88963500D02*
X66040000Y-88773000D01*
X66230500Y-92011500D02*
X66230500Y-88963500D01*
X55245000Y-93980000D02*
X55245000Y-92837000D01*
X58119000Y-89963000D02*
X63032000Y-89963000D01*
X55245000Y-92837000D02*
X58119000Y-89963000D01*
X58142000Y-94853000D02*
X63032000Y-89963000D01*
X55229000Y-94853000D02*
X58142000Y-94853000D01*
X72644000Y-90805000D02*
X68326000Y-86487000D01*
X73406000Y-90805000D02*
X72644000Y-90805000D01*
X73787000Y-91186000D02*
X73406000Y-90805000D01*
X83693000Y-91186000D02*
X73787000Y-91186000D01*
X80581500Y-53513538D02*
X80581500Y-42100500D01*
X80645000Y-53577038D02*
X80581500Y-53513538D01*
X80645000Y-63119000D02*
X80645000Y-53577038D01*
X84709000Y-37973000D02*
X80581500Y-42100500D01*
X79502000Y-43180000D02*
X79629000Y-43053000D01*
X79502000Y-62103000D02*
X79502000Y-43180000D01*
X79629000Y-43053000D02*
X77851000Y-44831000D01*
X80581500Y-42100500D02*
X79629000Y-43053000D01*
X72390000Y-61976000D02*
X72326500Y-61912500D01*
X72390000Y-65786000D02*
X72390000Y-61976000D01*
X72326500Y-53022500D02*
X72199500Y-52895500D01*
X72326500Y-61912500D02*
X72326500Y-53022500D01*
X72199500Y-52895500D02*
X65786000Y-59309000D01*
X73329800Y-66725800D02*
X72390000Y-65786000D01*
X73329800Y-70612000D02*
X73329800Y-66725800D01*
X73329800Y-72275700D02*
X73306940Y-72298560D01*
X73329800Y-70612000D02*
X73329800Y-72275700D01*
X77470000Y-44831000D02*
X77851000Y-44831000D01*
D32*
X69998400Y-35114800D02*
X69803200Y-35310000D01*
X69998400Y-32571500D02*
X69998400Y-35114800D01*
X72547100Y-30022800D02*
X69998400Y-32571500D01*
X64414400Y-45986700D02*
X65862200Y-44538900D01*
X67297300Y-44538900D02*
X70408800Y-47650400D01*
X65862200Y-44538900D02*
X67297300Y-44538900D01*
D31*
X72199500Y-50101500D02*
X77470000Y-44831000D01*
D32*
X70408800Y-47650400D02*
X70408800Y-49898300D01*
X70612000Y-50101500D02*
X72199500Y-50101500D01*
X70408800Y-49898300D02*
X70612000Y-50101500D01*
X69634100Y-49466500D02*
X69634100Y-49999900D01*
X69634100Y-49999900D02*
X70586600Y-50952400D01*
X70586600Y-50952400D02*
X72009000Y-50952400D01*
X72009000Y-50952400D02*
X72199500Y-50761900D01*
D31*
X72199500Y-50761900D02*
X72199500Y-50101500D01*
D32*
X64477900Y-45923200D02*
X64414400Y-45986700D01*
X65633600Y-45923200D02*
X64477900Y-45923200D01*
X65633600Y-45923200D02*
X65633600Y-49784000D01*
X65633600Y-49784000D02*
X67678300Y-51828700D01*
D31*
X72199500Y-51828700D02*
X72199500Y-50761900D01*
D32*
X67678300Y-51828700D02*
X72199500Y-51828700D01*
D31*
X72199500Y-52895500D02*
X72199500Y-51828700D01*
D33*
X87503000Y-24257000D02*
X87503000Y-24993600D01*
X87503000Y-24993600D02*
X85382100Y-27114500D01*
X56264800Y-24972000D02*
X52277000Y-24972000D01*
X58407300Y-27114500D02*
X56264800Y-24972000D01*
X52277000Y-24972000D02*
X41910000Y-24972000D01*
X53594000Y-24972000D02*
X52277000Y-24972000D01*
D31*
X60147200Y-27622500D02*
X59639200Y-27114500D01*
X60147200Y-35864800D02*
X60147200Y-27622500D01*
D33*
X59639200Y-27114500D02*
X58407300Y-27114500D01*
D31*
X51308000Y-60071000D02*
X49403000Y-58166000D01*
X53848000Y-60071000D02*
X51308000Y-60071000D01*
D32*
X72402700Y-37426900D02*
X71920100Y-37426900D01*
X68757800Y-40513000D02*
X71056500Y-38214300D01*
X71056500Y-37490400D02*
X71520050Y-37026850D01*
X71520050Y-37026850D02*
X69803200Y-35310000D01*
X71056500Y-38214300D02*
X71056500Y-37490400D01*
X71920100Y-37426900D02*
X71520050Y-37026850D01*
X73761600Y-27635200D02*
X73240900Y-27114500D01*
X73761600Y-30022800D02*
X73761600Y-27635200D01*
D33*
X73240900Y-27114500D02*
X59639200Y-27114500D01*
X85382100Y-27114500D02*
X73240900Y-27114500D01*
D32*
X75361800Y-30022800D02*
X73761600Y-30022800D01*
X73761600Y-30022800D02*
X72547100Y-30022800D01*
D31*
X84831000Y-88003300D02*
X75811300Y-88003300D01*
X75811300Y-88003300D02*
X73266300Y-85458300D01*
X68376800Y-85458300D02*
X68326000Y-85509100D01*
X73266300Y-85458300D02*
X68376800Y-85458300D01*
X68326000Y-85509100D02*
X68326000Y-86487000D01*
X68326000Y-83566000D02*
X68326000Y-85509100D01*
D33*
X33876000Y-24718000D02*
X31670000Y-26924000D01*
X33876000Y-24591000D02*
X33876000Y-24718000D01*
X30353000Y-28241000D02*
X31670000Y-26924000D01*
X30226000Y-28241000D02*
X30353000Y-28241000D01*
D31*
X76454000Y-75692000D02*
X76454000Y-76073000D01*
D32*
X66611500Y-43624500D02*
X67627500Y-43624500D01*
X67627500Y-43624500D02*
X69850000Y-45847000D01*
X69850000Y-45847000D02*
X69850000Y-45847000D01*
D31*
X76187300Y-50266600D02*
X76187300Y-49174400D01*
X76187300Y-49174400D02*
X76187300Y-49174400D01*
X76187300Y-70243700D02*
X76187300Y-50266600D01*
X76187300Y-70624700D02*
X76187300Y-70243700D01*
X76187300Y-71490240D02*
X72898000Y-74779540D01*
X76187300Y-70243700D02*
X76187300Y-71490240D01*
D34*
X61087000Y-41656000D02*
X61087000Y-42481500D01*
X61087000Y-42481500D02*
X60337700Y-43230800D01*
X60337700Y-43230800D02*
X60337700Y-46278800D01*
X57594500Y-49022000D02*
X57594500Y-56908700D01*
X60337700Y-46278800D02*
X57594500Y-49022000D01*
X58432700Y-56972200D02*
X58432700Y-49758600D01*
X58432700Y-49758600D02*
X61849000Y-46342300D01*
X61849000Y-46342300D02*
X61849000Y-41656000D01*
X56591200Y-57023000D02*
X56591200Y-48552100D01*
X56591200Y-48552100D02*
X59232800Y-45910500D01*
X59232800Y-42748200D02*
X60325000Y-41656000D01*
X59232800Y-45910500D02*
X59232800Y-42748200D01*
X71374000Y-48895000D02*
X71374000Y-46875700D01*
X71374000Y-46875700D02*
X79603600Y-38646100D01*
X79603600Y-36512500D02*
X79641700Y-36474400D01*
X79603600Y-38646100D02*
X79603600Y-36512500D01*
M02*
