G04 #@! TF.GenerationSoftware,KiCad,Pcbnew,(5.1.10)-1*
G04 #@! TF.CreationDate,2021-11-18T05:31:33+07:00*
G04 #@! TF.ProjectId,Georesistance PCB,47656f72-6573-4697-9374-616e63652050,1*
G04 #@! TF.SameCoordinates,Original*
G04 #@! TF.FileFunction,Soldermask,Bot*
G04 #@! TF.FilePolarity,Negative*
%FSLAX46Y46*%
G04 Gerber Fmt 4.6, Leading zero omitted, Abs format (unit mm)*
G04 Created by KiCad (PCBNEW (5.1.10)-1) date 2021-11-18 05:31:33*
%MOMM*%
%LPD*%
G01*
G04 APERTURE LIST*
%ADD10C,3.200000*%
%ADD11C,2.000000*%
%ADD12R,2.000000X2.000000*%
%ADD13C,1.600000*%
%ADD14O,1.600000X1.600000*%
%ADD15O,2.000000X1.905000*%
%ADD16R,2.000000X1.905000*%
%ADD17O,1.700000X1.700000*%
%ADD18R,1.700000X1.700000*%
%ADD19C,1.440000*%
%ADD20C,2.500000*%
%ADD21R,2.500000X2.500000*%
%ADD22C,1.000000*%
%ADD23O,2.400000X2.400000*%
%ADD24C,2.400000*%
%ADD25C,2.340000*%
%ADD26R,1.050000X1.500000*%
%ADD27O,1.050000X1.500000*%
%ADD28R,1.905000X2.000000*%
%ADD29O,1.905000X2.000000*%
G04 APERTURE END LIST*
D10*
X93218000Y-25273000D03*
X20066000Y-25273000D03*
X93218000Y-93091000D03*
X20066000Y-93091000D03*
D11*
X41529000Y-24591000D03*
D12*
X41529000Y-29591000D03*
D13*
X46228000Y-60071000D03*
D14*
X53848000Y-60071000D03*
X71501000Y-94869000D03*
D13*
X71501000Y-87249000D03*
D15*
X27368500Y-58356500D03*
X27368500Y-60896500D03*
D16*
X27368500Y-63436500D03*
D13*
X77851000Y-83439000D03*
D14*
X70231000Y-83439000D03*
X55372000Y-72390000D03*
D13*
X62992000Y-72390000D03*
D17*
X78740000Y-71247000D03*
X78740000Y-68707000D03*
D18*
X78740000Y-66167000D03*
D19*
X65786000Y-76454000D03*
X68326000Y-78994000D03*
X70866000Y-76454000D03*
D20*
X28067000Y-85739000D03*
X28067000Y-80739000D03*
X28067000Y-75739000D03*
D21*
X28067000Y-70739000D03*
D22*
X73533000Y-41656000D03*
X70485000Y-39878000D03*
X56007000Y-89027000D03*
X46101000Y-93091000D03*
D14*
X84074000Y-76708000D03*
D13*
X84074000Y-84328000D03*
X62992000Y-80264000D03*
D14*
X55372000Y-80264000D03*
X55372000Y-64262000D03*
D13*
X62992000Y-64262000D03*
D14*
X70993000Y-60071000D03*
D13*
X63373000Y-60071000D03*
D23*
X37084000Y-40386000D03*
D24*
X52324000Y-40386000D03*
D14*
X82169000Y-44831000D03*
D13*
X82169000Y-52451000D03*
D14*
X40767000Y-35306000D03*
D13*
X33147000Y-35306000D03*
X35941000Y-58547000D03*
D14*
X43561000Y-58547000D03*
D17*
X87503000Y-24257000D03*
X84963000Y-24257000D03*
X82423000Y-24257000D03*
X79883000Y-24257000D03*
X77343000Y-24257000D03*
X74803000Y-24257000D03*
X72263000Y-24257000D03*
X69723000Y-24257000D03*
X67183000Y-24257000D03*
X64643000Y-24257000D03*
D18*
X62103000Y-24257000D03*
D14*
X56515000Y-42291000D03*
D13*
X56515000Y-34671000D03*
D25*
X60532000Y-84963000D03*
X63032000Y-89963000D03*
X65532000Y-84963000D03*
D15*
X27051000Y-34798000D03*
X27051000Y-37338000D03*
D16*
X27051000Y-39878000D03*
D26*
X77724000Y-75692000D03*
D27*
X75184000Y-75692000D03*
X76454000Y-75692000D03*
D19*
X36703000Y-63563500D03*
X39243000Y-63563500D03*
X41783000Y-63563500D03*
D14*
X51435000Y-35306000D03*
D13*
X43815000Y-35306000D03*
D14*
X77851000Y-52451000D03*
D13*
X77851000Y-44831000D03*
D14*
X84759800Y-33947100D03*
D13*
X77139800Y-33947100D03*
D23*
X25527000Y-93599000D03*
D24*
X40767000Y-93599000D03*
D23*
X36195000Y-87249000D03*
D24*
X51435000Y-87249000D03*
D28*
X38100000Y-80772000D03*
D29*
X40640000Y-80772000D03*
X43180000Y-80772000D03*
D21*
X26670000Y-26924000D03*
D20*
X31670000Y-26924000D03*
D11*
X40513000Y-51545500D03*
D12*
X40513000Y-46545500D03*
D11*
X53213000Y-51545500D03*
D12*
X53213000Y-46545500D03*
D11*
X28956000Y-51545500D03*
D12*
X28956000Y-46545500D03*
X53594000Y-29972000D03*
D11*
X53594000Y-24972000D03*
M02*
