M48
; DRILL file {KiCad (5.1.10)-1} date 11/18/21 05:32:55
; FORMAT={-:-/ absolute / metric / decimal}
; #@! TF.CreationDate,2021-11-18T05:32:55+07:00
; #@! TF.GenerationSoftware,Kicad,Pcbnew,(5.1.10)-1
; #@! TF.FileFunction,Plated,1,4,PTH
FMAT,2
METRIC
T1C0.300
T2C0.400
T3C0.500
T4C0.750
T5C0.800
T6C1.000
T7C1.100
T8C1.200
T9C1.300
%
G90
G05
T1
X55.229Y-94.853
X55.245Y-93.98
X56.591Y-57.023
X57.594Y-56.909
X58.433Y-56.972
X60.147Y-35.865
X60.325Y-41.656
X61.087Y-41.656
X61.849Y-41.656
X62.89Y-40.653
X62.89Y-41.516
X64.414Y-45.987
X65.062Y-33.833
X65.062Y-34.658
X65.634Y-45.923
X66.23Y-92.011
X66.611Y-43.624
X67.564Y-91.567
X68.758Y-40.513
X69.634Y-49.466
X69.803Y-35.31
X69.85Y-45.847
X69.998Y-32.572
X71.374Y-48.895
X72.047Y-34.099
X72.187Y-43.777
X72.326Y-61.912
X72.39Y-65.786
X72.403Y-37.427
X72.568Y-33.579
X72.898Y-74.78
X73.307Y-72.299
X73.33Y-70.612
X73.406Y-90.805
X75.362Y-30.023
X76.187Y-49.174
X79.502Y-62.103
X79.642Y-36.474
X80.645Y-63.119
X81.547Y-57.074
X81.547Y-57.798
X81.661Y-29.312
X81.712Y-30.15
X83.566Y-89.916
X83.693Y-91.186
X84.831Y-88.003
X87.249Y-57.036
X87.249Y-57.963
X87.249Y-89.916
T2
X43.815Y-83.566
X43.815Y-83.566
X45.339Y-83.566
X46.12Y-69.742
X46.482Y-76.835
X46.498Y-75.295
X46.736Y-83.566
X47.242Y-70.106
X47.641Y-75.295
X47.879Y-76.835
X47.942Y-82.867
T3
X46.101Y-93.091
X56.007Y-89.027
X70.485Y-39.878
X73.533Y-41.656
T4
X75.184Y-75.692
X76.454Y-75.692
X77.724Y-75.692
T5
X33.147Y-35.306
X35.941Y-58.547
X36.703Y-63.563
X39.243Y-63.563
X40.767Y-35.306
X41.783Y-63.563
X43.561Y-58.547
X43.815Y-35.306
X46.228Y-60.071
X51.435Y-35.306
X53.848Y-60.071
X55.372Y-64.262
X55.372Y-72.39
X55.372Y-80.264
X56.515Y-34.671
X56.515Y-42.291
X62.992Y-64.262
X62.992Y-72.39
X62.992Y-80.264
X63.373Y-60.071
X65.786Y-76.454
X68.326Y-78.994
X70.231Y-83.439
X70.866Y-76.454
X70.993Y-60.071
X71.501Y-87.249
X71.501Y-94.869
X77.14Y-33.947
X77.851Y-44.831
X77.851Y-52.451
X77.851Y-83.439
X82.169Y-44.831
X82.169Y-52.451
X84.074Y-76.708
X84.074Y-84.328
X84.76Y-33.947
T6
X28.956Y-46.545
X28.956Y-51.545
X40.513Y-46.545
X40.513Y-51.545
X41.529Y-24.591
X41.529Y-29.591
X53.213Y-46.545
X53.213Y-51.545
X53.594Y-24.972
X53.594Y-29.972
X62.103Y-24.257
X64.643Y-24.257
X67.183Y-24.257
X69.723Y-24.257
X72.263Y-24.257
X74.803Y-24.257
X77.343Y-24.257
X78.74Y-66.167
X78.74Y-68.707
X78.74Y-71.247
X79.883Y-24.257
X82.423Y-24.257
X84.963Y-24.257
X87.503Y-24.257
T7
X27.051Y-34.798
X27.051Y-37.338
X27.051Y-39.878
X27.368Y-58.356
X27.368Y-60.896
X27.368Y-63.436
X38.1Y-80.772
X40.64Y-80.772
X43.18Y-80.772
T8
X25.527Y-93.599
X36.195Y-87.249
X37.084Y-40.386
X40.767Y-93.599
X51.435Y-87.249
X52.324Y-40.386
T9
X26.67Y-26.924
X28.067Y-70.739
X28.067Y-75.739
X28.067Y-80.739
X28.067Y-85.739
X31.67Y-26.924
X60.532Y-84.963
X63.032Y-89.963
X65.532Y-84.963
T0
M30
